<svg xmlns="http://www.w3.org/2000/svg" xmlns:xlink="http://www.w3.org/1999/xlink" xmlns:svgjs="http://svgjs.com/svgjs" version="1.1" width="512" height="512" x="0" y="0" viewBox="0 0 64 64" style="enable-background:new 0 0 512 512" xml:space="preserve"><g><g id="_11-Car-repair" data-name="11-Car-repair"><path d="m32 2a24.0275 24.0275 0 0 0 -24 24c0 18.294 22.44971 35.09766 23.40576 35.8042a.99964.99964 0 0 0 1.18848 0c.95605-.70654 23.40576-17.5102 23.40576-35.8042a24.0275 24.0275 0 0 0 -24-24zm0 42a18 18 0 1 1 18-18 18.02047 18.02047 0 0 1 -18 18zm.18-13.76-5.64 5.64a3.83822 3.83822 0 0 1 -2.71 1.12h-.01a3.84117 3.84117 0 0 1 -3.82-3.82 3.81935 3.81935 0 0 1 1.12-2.72l5.64-5.64a10.06321 10.06321 0 0 0 5.42 5.42zm11.64983-10.88734a7.99324 7.99324 0 1 1 -6.18249-6.18249 1.00388 1.00388 0 0 1 .49166 1.69083l-2.84912 2.84912a.98969.98969 0 0 0 -.28988.69988v2.59a1.003 1.003 0 0 0 1 1h2.59a.98969.98969 0 0 0 .69989-.28992l2.84911-2.84908a1.00388 1.00388 0 0 1 1.69083.49166z" fill="#ffffff" data-original="#000000"/></g></g></svg>